<svg xmlns="http://www.w3.org/2000/svg" viewBox="0 0 3890 2738"><defs><style>.cls-1{fill:#edf1f5;}.cls-2{fill:#ffe8c0;}.cls-3{fill:#efd078;}.cls-4{fill:#444;}.cls-5{fill:#cad09e;}.cls-6{fill:#b5b550;}.cls-7{fill:#e88c82;}.cls-8{fill:#e27d69;}.cls-9{fill:#dd694a;}.cls-10{fill:#c1dde0;}</style></defs><title>Asset 14</title><g id="Layer_2" data-name="Layer 2"><g id="Layer_1-2" data-name="Layer 1"><path d="M1166.89,2667.73v68h-14.1V2568.79h56.86q26,0,41.1,13.3t15.07,36.57q0,23.51-14.5,36.28t-42,12.79Zm0-11.93h42.76q20.52,0,31.3-9.76t10.77-27.21q0-17.34-10.72-27.61t-30.43-10.51h-43.68Z"/><path d="M1427,2694.67q0-13.87-9.74-22t-35.66-15.36q-25.91-7.28-37.83-15.88-17-12.15-17-31.87,0-19.14,15.76-31.12t40.29-12q16.63,0,29.75,6.42A48.67,48.67,0,0,1,1433,2590.8a47,47,0,0,1,7.23,25.57H1426q0-17.13-11.69-27.54t-31.42-10.41q-19.14,0-30.49,8.56t-11.35,22.33a25.27,25.27,0,0,0,10.2,20.78q10.21,8,32.68,14.18t34,12.74q11.57,6.59,17.42,15.76t5.85,21.67q0,19.71-15.77,31.64T1383.93,2738a81.36,81.36,0,0,1-32.39-6.31q-14.73-6.3-22.35-17.65a45.53,45.53,0,0,1-7.63-26h14.1q0,17.66,13.19,27.85t35.08,10.21q19.48,0,31.29-8.6T1427,2694.67Z"/><path d="M1524,2735.71h-14.1V2568.79H1524Z"/><path d="M1722.74,2683.66q-2.88,26.37-18.86,40.35t-42.59,14q-18.57,0-32.85-9.29t-22.06-26.31q-7.8-17-7.91-38.92v-21.66q0-22.25,7.79-39.44t22.41-26.54q14.63-9.35,33.65-9.34,26.82,0,42.36,14.44t18.06,40h-14.22q-5.28-42.52-46.2-42.53-22.69,0-36.17,17t-13.47,46.93v20.42q0,28.9,13.13,46.12t35.48,17.21q22.13,0,33.36-10.61t13.87-31.81Z"/><path d="M1915.58,2661.31q0,23-8,40.46t-22.76,26.83q-14.79,9.41-34.16,9.4-29.23,0-47.23-20.92t-18-56.46v-17.2q0-22.82,8.08-40.41t22.87-27.05q14.79-9.47,34-9.46t34,9.28q14.73,9.28,22.75,26.26t8.37,39.32Zm-14.1-18.12q0-30.15-13.64-47.23t-37.37-17.08q-23.28,0-37.09,17.14t-13.81,47.86v17.43q0,29.68,13.75,47.06t37.38,17.36q24,0,37.37-17.13t13.41-47.75Z"/><path d="M2000.56,2723.78H2083v11.93h-96.64V2568.79h14.22Z"/><path d="M2261.16,2661.31q0,23-8,40.46t-22.76,26.83q-14.79,9.41-34.16,9.4-29.23,0-47.23-20.92t-18-56.46v-17.2q0-22.82,8.08-40.41T2162,2576q14.79-9.47,34.05-9.46t34,9.28q14.73,9.28,22.76,26.26t8.37,39.32Zm-14.11-18.12q0-30.15-13.64-47.23T2196,2578.88q-23.28,0-37.09,17.14t-13.81,47.86v17.43q0,29.68,13.76,47.06t37.37,17.36q24,0,37.37-17.13t13.41-47.75Z"/><path d="M2452.4,2715.87q-7.33,10.44-23,16.28t-35,5.85q-19.6,0-34.85-9.4a62.54,62.54,0,0,1-23.62-26.6q-8.37-17.19-8.48-39.43v-21.1q0-34.72,17.54-54.85t47.12-20.12q25.79,0,41.5,13.12t18.68,36.17h-14.1q-3.09-18.39-15-27.88t-31-9.49q-23.39,0-37,16.64T2341.54,2642v19.73q0,19,6.48,33.68t18.57,22.66a49.12,49.12,0,0,0,27.8,8q18.22,0,31.3-5.73,8.47-3.79,12.61-8.83v-43.11h-44.83v-11.92h58.93Z"/><path d="M2546.66,2561h16.62l-26.48,32.09-12-.05Zm-7.11,174.71h-13.76v-124h13.76Z"/><path d="M2705.23,2688.82h-75.78l-17.2,46.89h-14.78l63.16-166.92h13.42l63.16,166.92h-14.67Zm-71.42-11.92h67L2667.28,2586Z"/><path class="cls-1" d="M1969.6,0C1209.71,0,593.7,616,593.7,1375.89c0,248.62,65.95,481.83,181.3,683.11H3164.2c115.34-201.28,181.29-434.49,181.29-683.11C3345.49,616,2729.48,0,1969.6,0Z"/><path d="M180.86,2354.58q-4.37,37.27-27.51,57.52T91.8,2432.34q-41.62,0-66.71-29.84T0,2322.64v-22.59q0-32.75,11.7-57.6t33.15-38.15Q66.3,2191,94.54,2191q37.42,0,60,20.89t26.3,57.84H149.72q-4-28.16-17.51-40.78t-37.67-12.62q-29.69,0-46.54,22t-16.86,62.49v22.76q0,38.28,16,60.88T91.8,2407q25.82,0,39.61-11.69t18.31-40.74Z"/><path d="M358.84,2334.09H303.67v95H272.53V2194.21h77.76q39.69,0,61.07,18.07t21.37,52.6q0,21.95-11.85,38.23t-33,24.37l55.18,99.7v1.94H409.83Zm-55.17-25.33h47.59q23.07,0,36.7-12t13.64-32q0-21.83-13-33.46t-37.51-11.8H303.67Z"/><path d="M558.93,2429.12H528V2194.21h31Z"/><path d="M734.34,2324.41q-39.86-11.44-58-28.15T658.19,2255q0-27.75,22.18-45.9T738.05,2191q24.19,0,43.15,9.35t29.37,25.82a66.06,66.06,0,0,1,10.4,36H789.84q0-21.37-13.56-33.6t-38.23-12.22q-22.92,0-35.74,10.1t-12.83,28q0,14.39,12.19,24.33T743.13,2297q29.28,8.24,45.82,18.16t24.52,23.16q8,13.23,8,31.13,0,28.56-22.27,45.74t-59.53,17.18a110.47,110.47,0,0,1-45.17-9.27q-21-9.29-32.35-25.41A62,62,0,0,1,650.76,2361H681.9q0,21.3,15.73,33.64t42,12.34q24.52,0,37.59-10t13.07-27.26q0-17.27-12.1-26.7T734.34,2324.41Z"/><path d="M1073,2219.54h-75.5v209.58H966.69V2219.54H891.35v-25.33H1073Z"/><path d="M1190.66,2429.12h-31V2194.21h31Z"/><path d="M1477.38,2429.12h-31.13L1328,2248.1v181h-31.14V2194.21H1328L1446.57,2376V2194.21h30.81Z"/><path d="M1714.58,2367.65h-98.41l-22.11,61.47h-31.94l89.7-234.91h27.11l89.86,234.91H1737Zm-89.06-25.33h79.86l-40-109.87Z"/><path d="M2154.12,2354.58q-4.35,37.27-27.5,57.52t-61.55,20.24q-41.63,0-66.72-29.84t-25.08-79.86v-22.59q0-32.75,11.69-57.6t33.16-38.15q21.45-13.32,49.69-13.31,37.43,0,60,20.89t26.29,57.84H2123q-4-28.16-17.51-40.78t-37.67-12.62q-29.68,0-46.55,22t-16.86,62.49v22.76q0,38.28,16,60.88t44.69,22.6q25.8,0,39.6-11.69t18.32-40.74Z"/><path d="M2426.65,2319.25q0,34.53-11.61,60.26t-32.92,39.28q-21.28,13.56-49.69,13.55-27.75,0-49.21-13.63t-33.31-38.88q-11.86-25.24-12.18-58.48v-16.94q0-33.88,11.78-59.86t33.31-39.77q21.54-13.8,49.29-13.79,28.23,0,49.77,13.63t33.16,39.53q11.61,25.89,11.61,60.26Zm-30.81-15.17q0-41.77-16.78-64.13t-46.95-22.34q-29.37,0-46.22,22.34t-17.35,62v17.26q0,40.5,17,63.65t46.87,23.15q30,0,46.47-21.86t16.94-62.68Z"/><path d="M2703.21,2429.12h-31.13l-118.26-181v181h-31.14V2194.21h31.14L2672.4,2376V2194.21h30.81Z"/><path d="M2894,2334.09h-55.18v95h-31.14V2194.21h77.76q39.69,0,61.07,18.07t21.38,52.6q0,21.95-11.86,38.23t-33,24.37l55.17,99.7v1.94h-33.23Zm-55.18-25.33h47.59q23.07,0,36.71-12t13.63-32q0-21.83-13-33.46t-37.51-11.8h-47.43Z"/><path d="M3094,2429.12h-31V2194.21h31Z"/><path d="M3379.63,2319.25q0,34-10.81,58.64t-30.33,38.48l42,32.92-21.14,19.52-49.53-39.37a100.57,100.57,0,0,1-24.52,2.9q-27.75,0-49.21-13.63t-33.31-38.88q-11.86-25.24-12.18-58.48v-16.94q0-33.88,11.77-59.86t33.32-39.77q21.54-13.8,49.29-13.79,28.4,0,49.93,13.71t33.15,39.45q11.63,25.72,11.62,60.09Zm-31-15.17q0-41.46-16.53-64t-47.19-22.5q-29.2,0-46.06,22.34t-17.35,62v17.26q0,40.34,16.86,63.56t46.87,23.24q30,0,46.46-21.86t16.94-62.68Z"/><path d="M3642.32,2194.21v159.73q-.17,33.22-20.9,54.37T3565.2,2432l-8.23.32q-38.56,0-61.47-20.81t-23.23-57.27V2194.21h30.65v159.08q0,25.5,14,39.61t40,14.11q26.3,0,40.25-14t14-39.53V2194.21Z"/><path d="M3873.54,2320.54h-101.8v83.25H3890v25.33H3740.77V2194.21h147.62v25.33H3771.74v75.67h101.8Z"/><path class="cls-2" d="M1264.91,1871.55c0-.12-.05-.23-.08-.35q-.11-5.51-.31-11a14.5,14.5,0,0,0,.24-2.24,895.12,895.12,0,0,0-3.4-100.55,15.57,15.57,0,0,0-2.79-7.78c2.43-44.55-1-89.55-1.86-134.26q2.58-37.63,2.68-75.37c.15-1.29.28-2.59.43-3.88a9.29,9.29,0,0,0-.43-4q-.09-20.47-.9-41a17.9,17.9,0,0,0,1.61-5.65c1.73-14.66-1.39-29.08-7.78-42.29-2-4.11-6.93-6.39-11.49-6.34a43,43,0,0,0-3.7-3.57,14,14,0,0,0-12.09-3.37q-3.15-1.83-6.38-3.48c-13.66-7-27.56-13.54-41.46-20-29-13.51-58.69-25.87-89.69-34a13.13,13.13,0,0,0-11.9,2.79l-9.46-3.2c-.19-.07-.37-.1-.56-.15l0-.06c-3.57-4.48-11.16-7.13-16.38-3.5a10.24,10.24,0,0,0-7.38,2c-1.67,1.23-3.29,2.49-4.88,3.78a11.73,11.73,0,0,0-7.28,3.63c-32.39,33.26-47.27,77.92-61.88,120.93l-51.84,152.55L886.73,1737c-2.25,6.61,2.6,14.1,9,15.88,5.24,1.45,10.5,3.18,15.82,4.33,8.17,1.77,15.77-1.68,19.09-9.5a60.43,60.43,0,0,0,2.87-9.21,13.21,13.21,0,0,0,2.91-5.14c2.62-8.85,5.1-17.73,7.5-26.64a246.44,246.44,0,0,0,20.25-52.23,14.78,14.78,0,0,0,.38-2.17q6.23-20.49,13.17-40.73a13,13,0,0,0,4.51-6.72q5.44-17.72,10.91-35.42a11.36,11.36,0,0,0,.43-2.21,10.31,10.31,0,0,0,5.82-5.27,190.68,190.68,0,0,0,14.2-45.28l1.09-3.55a12.28,12.28,0,0,0,.38-1.88l3.48-11a18.19,18.19,0,0,0,2.26-4c1.47-3.66,3-7.27,4.66-10.87a16,16,0,0,0,1.93-2.26,193.67,193.67,0,0,0,23.23-44.91,10.63,10.63,0,0,0-.07-7.19l9.27-14.66a12.64,12.64,0,0,0,1-2q2-2.24,4.12-4.4a13.67,13.67,0,0,0,2.16-2.8l.32.1a13.61,13.61,0,0,0,7.09,5.53q40.24,14.67,80.9,28.16,20.08,6.64,40.26,13c3.08,1,6.29,2,9.52,2.86a275.19,275.19,0,0,1,11,95.27q-1,9.14-1.67,18.32a11.53,11.53,0,0,0,3.59,8.86l-1.65,73c-.17,5.74-.31,11.49-.39,17.25a12.62,12.62,0,0,0,1.4,6.2q.6,51.38,3.15,102.71-.24,33.87-1.85,67.7a14.29,14.29,0,0,0-.73,4q-.49,13.38-1,26.77a10.88,10.88,0,0,0,.19,2.43l-1.56,55.5c-.33,11.83,14,16.18,22,9.13a56.83,56.83,0,0,1,7.94-5.85,12.45,12.45,0,0,0,4.58.93c7.45,0,12.35-5.93,12.91-12.91q1.93-24,1.78-48.09A13.43,13.43,0,0,0,1264.91,1871.55Z"/><path class="cls-2" d="M1686.81,1724.1l-.69-1a11.61,11.61,0,0,0-.69-3.91,320.84,320.84,0,0,0-15.23-35.47c-13.94-68.92-44.33-133.15-74.86-196.38a9.6,9.6,0,0,0-1.34-2.06c-11.47-34.81-23.79-69.33-37.85-103.21-2.56-6.17-8.08-10.63-15-9.22a13.18,13.18,0,0,0-2.47-.24c-5.18,0-11.63,4-12.44,9.47,0,.13,0,.25,0,.37a12.19,12.19,0,0,0-7-.1c-6.34,1.74-11.38,9.28-9,15.88l38.13,106.29q9.36,26.07,18.71,52.15c6.15,17.13,12.44,34.38,21.92,50a13.29,13.29,0,0,0,7.73,5.83q2.65,7.37,5.3,14.74l44.58,124.47c2,5.65,6.41,9.16,12.45,9.47a27.8,27.8,0,0,0,17.31-5,28.8,28.8,0,0,0,6.41-6.15,11.61,11.61,0,0,0,9-6.16C1696,1736.36,1692.85,1728.17,1686.81,1724.1Z"/><path class="cls-2" d="M1651.2,1095.31a389.81,389.81,0,0,0-8.72-61c-1.87-8.1-4-16.14-6.23-24.15-3-10.84-5.87-21.78-11.42-31.71l-.25-.43c-2.58-6.45-5.25-12.61-9.34-18.27-5-6.9-10.25-13.61-15.5-20.31Q1590.8,928,1581,917.36a400,400,0,0,0-42.16-39.64c-32.66-26.62-67.72-49.58-106-67.33a618.14,618.14,0,0,0-133.73-44.67c-25.1-5.25-50.51-8.94-76-11.88-17.29-2-35.08-4.31-52.58-3.79-54.76-7.92-111.32-3.76-163.2,16.48-16,6.25-31.93,13.17-46.91,21.69-3.49,2-6.91,4.08-10.28,6.23a216,216,0,0,0-33.32,24.28,39.8,39.8,0,0,0-9.53,13.55A237.3,237.3,0,0,0,889.52,852c-4.88,6-8.89,12-11.39,18.68-12.25,22.77-9.23,45.13-9.77,70.66-.82,39,21.46,76.67,31.2,114,9.39,36,4.59,98.45,14,134.47,9.48,36.36,11.68,53.38,30.79,86.23.47.8.94,1.58,1.42,2.36a161.37,161.37,0,0,0,33.62,47,170.49,170.49,0,0,0,65.76,39.1,41.16,41.16,0,0,0,15,7,682.59,682.59,0,0,1,102.66,32.77q17.43,7.53,34.45,16c12.78,6.39,25,14,38,20,14.4,6.74,25.44,9.88,41.38,11.22,7.4.62,14.86.36,22.28.26,15.16-.2,30.32-.66,45.39-2.45a337.5,337.5,0,0,0,54.77-10.6c14.39-4.16,28.52-9.18,42.6-14.29,25.85-9.36,51.65-19.16,76.46-31.05,24.62-11.8,47.78-26.76,68-45.18,23.75-21.61,40.32-48.72,51.42-78.63,10.46-28.2,13.6-59.36,14.71-89.22A811.46,811.46,0,0,0,1651.2,1095.31Z"/><path class="cls-3" d="M1654.31,1157.5c-2.26-41.28-8.64-81.54-15.94-122.17q-2.58-14.34-5.15-28.66a8.46,8.46,0,0,0,1.79-3.95c2.41-14.47-1.91-26.81-9.3-37.7a9.68,9.68,0,0,0-4.53-6.08c-7.16-8.79-16-16.65-24.42-24q-31.86-27.88-66.08-52.93c-44.45-32.47-92-60.8-142.43-83-107.62-47.5-228.52-67.37-344.7-43.76-52.73,10.72-107.24,32.69-138.91,78.2a9.38,9.38,0,0,0-1.85,1.61A142,142,0,0,0,868,931.36c1,38.06,15.61,73.76,30.6,108.16a8.14,8.14,0,0,0,2,2.74c2.88,4.63,6.79,8.63,10.83,12.94,6.13,6.53,12.45,12.88,18.86,19.13,13.08,12.74,26.58,25,39.88,37.52,26.17,24.58,51.79,50.13,70.78,80.84,8.43,13.65,16.16,27.83,25.92,40.52a8.75,8.75,0,0,0,1.64,5.41q18,24.39,33.75,50.28c10.37,17.08,19.3,34.9,29.14,52.29a179.46,179.46,0,0,0,36.43,45c4.07,3.69,8.22,7.33,12.41,10.92,9.65,17.64,21.57,32.43,40.12,41.23a116.28,116.28,0,0,0,55.56,11.22,96.85,96.85,0,0,0,25.34,3.8c13.73.19,27.36-2.82,40.57-6.27,26.76-7,53.53-14,80.09-21.75,50-14.51,97.83-34.26,141-63.52a451.51,451.51,0,0,0,50.37-39.6,79.77,79.77,0,0,0,14.14-13.4,13.85,13.85,0,0,0,3-6.43,101.67,101.67,0,0,0,10.92-17,10.28,10.28,0,0,0,2.53-5.3c1-2.31,2-4.65,2.86-7a8.63,8.63,0,0,0,.47-2.22q2.41-4.55,4.57-9.24a12.41,12.41,0,0,0,1.18-5.41c3-11.66,2.56-24.76,2.8-36.25C1656.18,1199.1,1655.45,1178.28,1654.31,1157.5Zm-66.67,157.17a423.68,423.68,0,0,1-89.3,58.35c-23.64,11.5-48.34,20.27-73.44,27.88a11.17,11.17,0,0,0-6.46-.26c-25.12,6-50.17,12.5-75.42,17.94s-50.23,8.1-75.86,4.82a7.81,7.81,0,0,0-2.94.2c-24.88-7.53-46.35-23.88-66.13-40.83l-1.09-2a995.22,995.22,0,0,0-63.71-102.06q-20.3-28.51-42.48-55.61a9.09,9.09,0,0,0-5.78-3.14c-8.08-10.33-14.53-21.86-21.3-33.15a323.27,323.27,0,0,0-31.49-43.7c-22.67-26.55-49-49.62-74.36-73.54-7.17-6.77-14.28-13.62-21.21-20.64q-5-5.09-9.93-10.32c-1.83-2-3.65-3.93-5.44-5.92-.55-.62-1.08-1.29-1.66-1.88s-1.12-2.74-.9-.83l0-.09a14.6,14.6,0,0,0-2.83-6.8c-12.3-28.48-24-58.46-25.25-89.71-1.16-29,7.89-57.71,26.34-80.22a11.41,11.41,0,0,0,4.31-4c24.77-38.51,69.36-57.92,112.26-68.52,53.18-13.15,108.91-15.59,163.32-10.26,107.54,10.52,209.25,53.78,298.1,114.08a866.86,866.86,0,0,1,70.31,53.22c11.13,9.34,22.53,18.68,32.73,29,2.06,2.1,4.3,4.46,6.42,7,6.77,37.51,14,75,20.13,112.57,6.3,38.43,8.43,77.83,8.71,116.73.08,10.94-.11,21.89-.69,32.81-.23,4.34-.11,9.76-1.2,14.57l0,0a10.06,10.06,0,0,0-3.51,7.51l-.19.23a10.91,10.91,0,0,0-3.1,7q-3.07,5.34-6.49,10.51a9.2,9.2,0,0,0-1.14,2.47,321.72,321.72,0,0,0-28.1,34.48A11.14,11.14,0,0,0,1587.64,1314.67Z"/><path class="cls-3" d="M1592.17,1277.25a637.61,637.61,0,0,0-104.56-39,274.91,274.91,0,0,0-50.54-15.1c-32.77-6.58-66.2-8-99.55-7.65a622.55,622.55,0,0,0-62.74,1.23q-5.37.39-10.73.86c-19.58.47-39.68-.71-58,7.52-.26.11-.52.24-.78.37q-6.36,1.15-12.69,2.45-31.2,1.57-62.32,4.47c-12,1.12-21.5,13.47-14.39,25.09q19.88,32.48,37,66.53a14.89,14.89,0,0,0,9.71,7.48q3.08,4.76,6.28,9.44a69.05,69.05,0,0,0,21.36,32c10,16,24.84,29,41.65,37.72,27.92,14.52,59.49,17.72,90.45,14.23,32.6-3.66,64.65-12.1,96.33-20.43,27.73-7.29,55-15.9,81.26-27.63,29-13,56.3-30.84,77.74-54.55a17.14,17.14,0,0,0,4.19-8.57q7-4.87,13.67-10.26C1603.55,1297,1601.21,1281.56,1592.17,1277.25Z"/><path class="cls-4" d="M1226.05,1948.36a5,5,0,0,1-3.53-1.47l-9.69-9.68a5,5,0,0,1-1.46-3.55c0-3.74,1.23-373.87,0-429.1-.91-41-15.16-46.44-16.35-46.83a2.34,2.34,0,0,1-.72-.19c-3.83-1.32-94-32.45-116.52-42.09-5-2.14-9.14-2.34-12.66-.61-6.93,3.41-9.54,13.28-9.57,13.38s-.1.34-.15.5L936,1753.6a5,5,0,0,1-2.94,3L915.84,1763a5,5,0,0,1-3.29.07l-33.35-10.75a5,5,0,0,1-3.16-6.49c.49-1.31,49-132.79,96.79-269.93,20.43-58.56,38.43-92.68,56.66-107.37a5,5,0,1,1,6.27,7.78c-16.48,13.29-34,46.94-53.49,102.88-42.66,122.3-85.82,240.1-95,265.21L914,1753l13.43-5,118.54-322.51c.59-2.14,4.39-14.46,14.71-19.58,6.22-3.09,13.31-3,21.08.36,21.54,9.23,109.75,39.72,115.55,41.72,4,.94,23,7.92,24.1,56.36,1.18,53.19.1,397.13,0,427.27l6,6.05,30.21-9.78V1477.55a4.53,4.53,0,0,1,0-.52c.08-.9,1.17-14.12-7.66-28.15a148.14,148.14,0,0,1-66-36.8c-8-2.7-16.78-5.6-26-8.68-62-20.62-147-48.87-175.72-68-40.36-26.91-71-124.75-74.29-180.28-3.21-53.43-21.63-156.46-31.8-177.81-3.73-7.83-8.61-23.6-10.1-42.25-2-24.8,2.14-48.35,12.23-70,23-49.38,75.16-84.91,155-105.59,47.52-12.32,97.87-17.31,149.66-14.85a607.48,607.48,0,0,1,132.22,21.59c79.29,21.88,139.27,54.52,162.2,70.36,7.53,5.2,17,11.19,27,17.54,25.31,16,56.82,35.94,82.58,58.94,30.86,27.55,47.08,53.69,49.58,79.92,2.1,22,5.41,47.93,8.91,75.37,7.29,57.07,14.82,116.08,12.62,149.19-1.54,23.07-4.41,49.89-19,76.32-16,28.94-44.09,53.87-85.79,76.21q-5,2.72-9.39,5c7.93-3.3,12.26-5.28,12.46-5.38a5,5,0,0,1,6.79,2.8l137.7,371.14a5,5,0,0,1-2.76,6.35l-33.35,14a5,5,0,0,1-5-.7l-16.14-12.91a5,5,0,0,1-1.51-2L1502.16,1401.8a1163.37,1163.37,0,0,1-189.2,49.48,145.59,145.59,0,0,1-50.32.27c.2.47.4.93.58,1.39a57.42,57.42,0,0,1,4.41,24.83v453.75a5,5,0,0,1-3.46,4.76l-36.58,11.83A4.78,4.78,0,0,1,1226.05,1948.36Zm424.77-204.95,12.79,10.23,26.19-11L1555.62,1381c-7.3,3.17-22.49,9.53-44,17.4Zm-455.88-285.7Zm61.12-17.6a138.42,138.42,0,0,0,55.15,1.33,1153.57,1153.57,0,0,0,187.21-48.91l-.53-1.32a5,5,0,0,1,3.2-6.66c.08,0,11.18-3.58,47.46-23.27,86.16-46.16,96.27-94.64,99.59-144.39,2.14-32.15-5.33-90.67-12.56-147.26-3.51-27.53-6.83-53.52-8.94-75.69-5.14-53.92-78.81-100.52-127.56-131.36-10.12-6.4-19.67-12.45-27.37-17.76-22.42-15.48-81.17-47.42-159.18-69-97.25-26.84-190.35-29.09-276.71-6.7-76.77,19.9-126.7,53.59-148.4,100.13-20.93,44.88-8.66,90.09-2.17,103.72,11.59,24.36,29.69,130.58,32.75,181.51,3.13,52.24,32.59,147.72,69.86,172.56,27.56,18.38,111.81,46.38,173.33,66.83l8.9,3a181.94,181.94,0,0,1-22.79-36.6c-3.46-7.35-6.81-14.6-10.36-22.29-33-71.48-70.38-152.5-187.48-258a5.22,5.22,0,0,1-.46-.48c-18.28-21.56-44-55-56.38-96.06-13.38-44.44-8-88.59,16-131.23,25.21-44.76,86-76.64,171.28-89.76,77.4-11.92,164.75-6.18,233.67,15.36,81.24,25.39,155.39,70.42,192.36,95,50.71,33.72,91.83,68.68,100,85,7.22,14.44,22.79,80.5,30.74,151.16,7,62.21,9.87,143.21-16.24,175.85l-.85,1.06c-5.77,7.26-23.33,29.37-43.85,44.66-30.3,22.57-71.79,53.48-143.93,74.29-45.06,13-102.92,27.64-150.69,25.44q-25.14-1.15-44.78-8.31A70,70,0,0,1,1256.06,1440.11Zm-43.83-18.3a137.86,137.86,0,0,0,24,12.21,78.7,78.7,0,0,0-20.49-10.94C1214.6,1422.67,1213.44,1422.24,1212.23,1421.81Zm-92.58-174.9c9.52,15.38,37.77,61.81,69.93,121.78,17.54,32.72,47.64,49.62,92,51.66,46.31,2.14,103.13-12.27,147.46-25.06,70.4-20.3,109.39-49.36,140.73-72.7,19.47-14.51,36.42-35.85,42-42.86l.87-1.09c18.7-23.37,23.71-83.21,14.11-168.48-7.71-68.52-23-134.34-29.74-147.81-6.15-12.3-42.1-44.93-96.59-81.18-36.53-24.29-109.76-68.77-189.81-93.78-136.33-42.61-342.15-21-393.26,69.75-51.35,91.19-2.4,166.72,39,215.67,118.41,106.74,156.24,188.69,189.61,261,3.54,7.66,6.88,14.9,10.33,22.21,9.12,19.33,20.33,34.89,32.76,47.22,11.16,3.76,20.9,7.11,28.61,9.93-15.5-9.38-27.75-22.59-37-39.74-39.27-73.23-72.64-126.11-73-126.63a5,5,0,0,1,2.58-7.4c.66-.23,66.75-22.89,158.71-30.25,54-4.32,106.34-2.62,155.49,5.07,61.54,9.63,118.26,28.72,168.59,56.73a5,5,0,0,1-4.87,8.74c-111.71-62.19-234.82-67.26-318.42-60.57C1195,1225.11,1137.72,1241.31,1119.65,1246.91Z"/><path class="cls-2" d="M3049.58,924.07c1.75-8.41-9.81-47.37-18.55-54.56a59,59,0,0,0-8.63-10.39c-1.37-1.31-2.79-2.55-4.23-3.75a152,152,0,0,0-13.09-13q-5.79-5-11.72-9.57a202.78,202.78,0,0,0-32.06-27.38c-16.87-11.76-36.61-20.21-56.15-26.31-2-.64-4.1-1.23-6.17-1.81a173,173,0,0,0-26.81-8.63c-6.1-3.87-95.36-13.35-118.54-13.45-44.09-.18-90.83,4.13-133.37,15.41-4,1.06-8,2.13-11.91,3.26a56.34,56.34,0,0,0-8.48,1.57c-40.3,6.82-79.37,22.49-114.92,42.44-24.77,13.9-48.2,30.45-70.37,48.42-14.95,8.66-29.72,17.63-44.38,26.76a57,57,0,0,0-22,25l-1.08.74a81.06,81.06,0,0,0-9.59,7.71,82.34,82.34,0,0,0-28.61,25.62,47.05,47.05,0,0,0-9.45,14.93l-1,.94a51.76,51.76,0,0,0-14.61,29,36.77,36.77,0,0,0-2.06,6.77l-2.22,11.27a83.82,83.82,0,0,0-1.38,10.36,1444.5,1444.5,0,0,0-17.36,170.1,244.81,244.81,0,0,0,3.7,56.08c3.23,17.13,11,33.76,20,48.57,18,29.49,39.87,56.37,69.58,74.67,13.65,8.4,28.41,14.77,43.61,20,23.74,14,50.63,22.41,77.4,29.88,39.12,10.92,79.7,20.56,120.53,20.8,6.35,0,12.76-.17,19.17-.63l.47.32c12.51,8.07,27.12,7.64,41,5.37a117.84,117.84,0,0,0,22.54-5.47c7.41-2.77,15.36-5.77,22.09-10.19,6-3.93,12.62-8.6,17.39-14.11,1-1.14,2-2.32,2.94-3.5q60.34-17.06,119.43-38.15c9.76-3.49,19.51-7,29.19-10.73,12.93-5,26.25-10,38-17.44,21.6-13.71,38.07-31.19,52.78-51.9,12.79-18,16.83-39.06,24.21-59.74,6.71-18.82,9.58-40.76,14-60.24,3.65-16.14,4.3-26.89,5.17-44.4a347.74,347.74,0,0,0,18.25-103.05c4.2-8,17.15-52.68,16.89-56.54A162.68,162.68,0,0,0,3049.58,924.07Z"/><path class="cls-2" d="M2403.57,1386.92a17.63,17.63,0,0,0-11-3.68,15.22,15.22,0,0,0-3.68-5.15c-6.68-6.13-18.6-7.49-25.1,0-21.15,24.35-29.67,55-36.72,85.75a19.15,19.15,0,0,0,.38,10.13,204.49,204.49,0,0,0-18.6,37.41,14.1,14.1,0,0,0-.21,9q-8.73,17.27-16.93,34.79a21.82,21.82,0,0,0-1.83,12.48q-9.13,26.51-19.32,52.65a13.64,13.64,0,0,0-.52,7.85c-1.57,3.24-3.28,6.49-5.21,9.82-1.48,2.44-3,4.89-4.45,7.32a17.71,17.71,0,0,0-1.28,15.08,20.59,20.59,0,0,0-1.4,3.29,301.49,301.49,0,0,1-11,29,23.31,23.31,0,0,0-2,9.87l-14.69,33a23.3,23.3,0,0,0-2,10.63l-1.72,2.19c-2.09,2.63-2.66,7.59,1.19,9.29l11.89,5.23c2.9,1.28,6.22,3.45,9.54,3.21,2.56-.18,4.3-1.55,6-3.22a4.79,4.79,0,0,0,4.54-1.77c1.46-1.78,2.82-3.59,4.08-5.47a20.77,20.77,0,0,0,9.12-10.91l33.64-84.85c17.67-32.91,33-67,41.37-103.53q11.46-25.83,21.4-52.29c3.33-8.92,6.5-17.9,10-26.75,1.89-4.79,2.12-5.4,4.36-10.22,1.23-2.66,2.53-5.28,3.89-7.88l3.3-6.06a19.13,19.13,0,0,0,2.07-11.62,96.46,96.46,0,0,0,6.23-17c3-4.92,6.13-9.82,9.28-14.67C2413,1402.38,2410.24,1392.07,2403.57,1386.92Z"/><path class="cls-2" d="M3028.63,1747.27a112.54,112.54,0,0,1-8.12-18.73,6.27,6.27,0,0,0-.52-1.14c-1.07-17.4-9.06-32.61-17.23-47.65a25.86,25.86,0,0,0,.72-11.85c-2.48-15.92-9.48-30.64-16.15-45.16l-20.2-44a14.87,14.87,0,0,0-3.14-4.41c-.81-3.2-1.59-6.42-2.3-9.65-2.15-9.73-3.86-19.56-6.31-29.22-2.35-9.3-5.66-18.28-8.73-27.35-6.14-18.13-9.85-36.77-19-53.8-3.13-5.83-6.66-11.43-10.09-17.08q-.69-3.39-1.36-6.78a16.35,16.35,0,0,0-4.27-8c-6.65-18.27-18.13-41.71-37.94-40.32a21.09,21.09,0,0,0-12.86-4.92l-1.72-.07a30.72,30.72,0,0,0-19.44.13,22.3,22.3,0,0,0-10.29,7.12q-42.54,11-84.22,24.93c-.19,0-.38.07-.57.13q-8.39,2.37-16.56,5.29a21.54,21.54,0,0,0-12.93,2.32l-35.29,18.28a18.65,18.65,0,0,0-8.94,11.45,17.1,17.1,0,0,0-5,3.16,16.41,16.41,0,0,0-7.54,7.46,55.77,55.77,0,0,0-5.41,17.51c-.56,1.3-1.11,2.61-1.66,3.93a15.17,15.17,0,0,0-.08,10.74q-2,6.09-3.92,12.19a18.25,18.25,0,0,0,.33,11.54c-1,1.61,2.81,129.79,9,133.16q-.67,12.33-1.7,24.67c-2.06,24.42-4.61,48.82-5.68,73.31a498.28,498.28,0,0,0,2.68,73.79c1.59,15.2,3,30.35,3.8,45.54a18.34,18.34,0,0,0-2.36,15.64c.19.59.35,1.18.53,1.77a30.5,30.5,0,0,0,.28,5.52l2,14.14a37.78,37.78,0,0,0-.22,20.23,30.77,30.77,0,0,0,.71,6.6,5.39,5.39,0,0,0,1.7,3c0,.06,0,.13.05.19a9,9,0,0,0,6.83,6.32c.05,0,.09.11.15.16a11.86,11.86,0,0,0,11.79,3.36,7.08,7.08,0,0,0,3.57,2.41c5,1.22,9.4-3.11,11.3-7.24,2.55-5.56,1.44-11.5-.07-17.17a5.47,5.47,0,0,0-1.38-2.41,20.21,20.21,0,0,0,5.66-13.69,588.77,588.77,0,0,0-3.42-73.8l-.27-2.56q.32-12.87.55-25.74,1.2-64.12,2.25-128.23a13.6,13.6,0,0,0-.59-4.32c1.63-19.92,3-39.86,3-59.89.07-24.1-.86-94.73.17-101.2a148.57,148.57,0,0,1,3.82-18.08c.43-1.47.88-2.93,1.37-4.37.09-.25.71-1.84,1-2.73s1.12-2.35,1.24-2.58c.85-1.62,1.79-3.19,2.76-4.74a17.64,17.64,0,0,0,2.24-5.52l.9-.65c1.21-.83,2.45-1.6,3.7-2.36a20.23,20.23,0,0,0,6-5.72l.55-.26.05.11c1.47-.68,2.95-1.36,4.43-2l2.34-1q2.2-.9,4.44-1.76a17.07,17.07,0,0,0,3.2-.76q56.71-20.09,115.17-34.56c.67,1.06,1.33,2.13,2,3.18,4.8,7.49,10.19,14.57,15.49,21.7,1.74,2.32,3.45,4.67,5.15,7a155.26,155.26,0,0,0,5.24,15.89c3.58,9.82,7.34,19.58,11.16,29.31,7.51,19.14,15.22,38.21,22.11,57.59,7,19.7,12.16,39.83,18.19,59.82a357.28,357.28,0,0,0,15.9,42c.06.46.11.92.16,1.38.52,4.44,1.07,8.87,1.69,13.29a126,126,0,0,0,9.27,32.11,18.15,18.15,0,0,0,2.66,8.29q4.44,7.13,8.87,14.27c3.51,6,7.25,11.93,11.07,17.8a24.7,24.7,0,0,0,.57,2.55c-1.09,7,2.3,14.36,9.9,16.17,4.95,1.17,10.19-.65,15-1.78l19.2-4.54C3028.92,1755.05,3030.39,1750.5,3028.63,1747.27Z"/><path class="cls-3" d="M3038.7,886.42c-2.54-9.93-12.72-18.71-16.72-28.15-3.53-8.32-8.58-15.72-16.42-19.82-.37-.67-.75-1.32-1.17-2-4.22-6.51-11-10.89-18.21-14.49-26-25.62-60.38-41.19-95.55-49.86-22.23-5.49-45.05-8.42-67.85-10.31a8.31,8.31,0,0,0-3.34.41,433.82,433.82,0,0,0-60.1-3.76c-58.9.06-119,2.44-175.66,19.72-50.22,15.32-97.1,40.14-140.66,69.18-49.89,33.26-95.94,71.89-141.61,110.62a8.46,8.46,0,0,0-2.35,3.29c-8.24,7-11.75,16.68-14.41,27.18q-4.92,19.37-8.76,39a775,775,0,0,0-11.47,81c-4.64,52.65-4.43,106.61,3.06,159,3.09,21.65,10.53,44.66,29.47,57.18a166.8,166.8,0,0,1,21.24,21.13,144.64,144.64,0,0,0,14.7,14.8,198.06,198.06,0,0,0,36.18,24.9c26.57,14.33,55.56,23.79,84.55,31.86,34.86,9.72,70,19.2,105.16,27.59,35,8.33,72.2,14,107.6,4.75,29.93-7.8,56.73-25.58,71.73-52.46a14.61,14.61,0,0,0,1.35-1.58c24.2-32.92,42.21-69.65,62.3-105.07,10.09-17.78,20.76-35.28,33-51.68,10.75-14.41,22.86-27.84,35.35-40.76,51.51-53.24,117.61-97.07,149.79-165.27C3057,954.2,3046.23,918.7,3038.7,886.42Zm-28,130.17c-16.39,32.71-47,60.06-72.62,85.85s-52.91,49.64-78.39,75.47a462.28,462.28,0,0,0-69.9,90.24c-20.91,35.49-38.73,72.84-62.06,106.83a13.49,13.49,0,0,0-5.63,6.7c-11.35,27.1-40.14,42.88-67.64,48.63-37.6,7.87-76.78-2.52-113.06-12-35.17-9.23-70.7-17.67-105.39-28.62-28.65-9.05-57.38-20.48-81.39-38.94a142.34,142.34,0,0,1-18.68-17.3,108.63,108.63,0,0,1-7.2-8.68c-2.88-3.92-5.28-8.45-9-11.68a17.28,17.28,0,0,0-6.78-3.63,12,12,0,0,0-2.12-1.52c-15.21-8.57-19.66-27.16-22.22-43.19-3.63-22.77-4.68-46.24-5.34-69.26a733.58,733.58,0,0,1,10.49-147.16q3.54-20.19,8.18-40.17c1.53-6.57,3.15-13.14,4.9-19.66a73.79,73.79,0,0,1,14.26-27.81c78.66-61.82,151.17-119.4,246.33-154.35a391.4,391.4,0,0,1,74.14-19.39c28.92-4.54,58.32-5.65,87.54-6.42s58.51-1.38,87.36,2.84c27.28,4,53.82,12,79.49,21.91a821.11,821.11,0,0,1,77.94,35,129.91,129.91,0,0,1,16.64,21.18c1.57,6,36.4,46.93,36.26,87.39C3026.85,954.21,3018.49,1001.11,3010.73,1016.59Z"/><path class="cls-3" d="M2793.13,1252.69c-3.16-2.81-6.22-3.84-9.18-3.75a9.39,9.39,0,0,0-1-.28l-37.09-6.7c-53.52-15.94-109.91-19.56-165.52-19.14-29.67.23-60,.06-89.41,4.19-28.44,4-56.26,13.43-83.41,22.5-24.8,8.29-49,18.38-70.06,33.76l-1.65.79c-6.93,3.34-20,7.27-22,15.54-1.21,5.07.14,9.89,4.15,12.82.17.13,5.69,7.41,9.53,10,5.08,3.42,8.91,10.26,14.13,13.67,5.8,8.43,15.1,12,23.92,17.45a101.64,101.64,0,0,0,20.54,16.19c18.8,11.31,40.51,17.38,61.19,24.26,21.07,7,42.06,14.44,63.55,20.08a519.42,519.42,0,0,0,69.33,12.89c22.83,2.78,46.68,5,69.22-.7,17.13-1.2,33.81-5.31,48.87-15,26.53-17,43.2-44.74,57.42-72.06C2765.38,1320.55,2800.31,1259.08,2793.13,1252.69Zm-399.44,44.77a9.29,9.29,0,0,0-1.26-.71C2392.86,1296.42,2393.29,1296.76,2393.69,1297.46Z"/><path class="cls-4" d="M2684.78,1948.36a4.8,4.8,0,0,1-1.3-.18l-28-7.53a5,5,0,0,1-3.7-4.74l-7.53-430.18c-.16-2.63-1.91-34.32,8.32-50.24l.05-.07c-33.88,3.3-77.4-4-142.06-17.07-40.67-8.22-73-18.79-97.22-28.58-26.57,62.4-136.93,342-138.11,345a5,5,0,0,1-1.47,2l-18.29,15.06a5,5,0,0,1-4.95.81l-31.2-11.83a5,5,0,0,1-2.91-6.41l139.85-378.66a5,5,0,0,1,1-1.63l-10.68-6.33-.3-.19c-36.51-25.31-59.26-47.65-71.61-70.29-11.12-20.39-12.18-38.32-13.2-55.66l-.16-2.64c-2.1-34.58,1.79-90.08,9.69-180.39,7.48-85.47,27.7-109.21,53.35-131.37,1.73-1.49,43-37,105.5-76.15,67.69-42.44,129.57-70,183.92-82,67.82-15,141.26-19.47,206.79-12.74,75.46,7.76,135.68,30.05,174.13,64.45,80.34,71.88,59.43,132.36,42.63,180.95-.84,2.44-1.68,4.86-2.5,7.27-12.17,35.75-21,93.85-28.79,145.12-3,20-5.91,38.87-8.67,54.24-10.19,56.58-19.4,82-53.9,120.77-28.41,32-72.08,44.33-127.37,60-13.73,3.88-27.92,7.9-42.71,12.47-18.28,5.64-33.65,11.24-46.58,16.62a123.25,123.25,0,0,1-22.07,19.35,106.55,106.55,0,0,1-37.14,15.51,46.07,46.07,0,0,0-6.58,7.76c-7.21,11.22-7.32,35.78-6.75,44.3,0,.08,0,.16,0,.24l7.46,426.55,22.15,6,5.6-3.73c.37-34.86,4.27-399.32,4.27-430.84,0-36.44,29.9-47.62,30.2-47.73,1-.37,100.23-35.57,117.2-41.93,7.31-2.75,12.73-1.14,16,.69,8.66,4.87,11.54,16.11,12.1,18.75l118.43,323.28,10.16,3.12,25.81-7.74c-12.72-36.24-91.33-260.34-108-311.43-16.86-51.55-45-54.56-46.19-54.66a5,5,0,0,1,.71-10c1.46.09,35.87,3,55,61.52,18.06,55.25,108.78,313.57,109.7,316.17a5,5,0,0,1-3.29,6.45l-32.27,9.68a5.06,5.06,0,0,1-2.91,0l-14-4.3a5,5,0,0,1-3.22-3.06l-119.41-326a4.32,4.32,0,0,1-.22-.78c-.51-2.58-2.81-9.86-7.29-12.35-2.07-1.16-4.54-1.17-7.56,0-17.06,6.39-116.34,41.63-117.34,42s-23.57,9.07-23.57,38.32c0,33-4.26,429.58-4.3,433.59a5,5,0,0,1-2.23,4.1l-9.68,6.46A5,5,0,0,1,2684.78,1948.36Zm-457.24-195.1,23.85,9,15.05-12.39c9.07-23,111.74-283,137.7-344a310,310,0,0,1-40.65-20.78Zm189.85-352.77c23.79,9.62,55.51,20,95.18,28.06,71.51,14.45,116.34,21.72,150.34,15.27,9.88-9,27.33-20.93,57.94-33.89,31.91-35.37,62.52-96.62,78.78-129.16l1.16-2.32c18-36,51.54-103.08,119.64-158.69,9.73-8,43.52-37.07,70-77.53,27.34-41.8,36.89-80.24,28.38-114.25-18.21-72.85-76.45-123.12-164-141.55-73.27-15.42-186.19-18.78-283.34,18.07C2483.9,837.71,2386,911.33,2347.94,941.44l-1.56,1.24c-24.45,19.33-37.91,30-46.07,89.12-8.1,58.74-20.4,167.83-15.07,204.06,1.55,10.54,7.83,38.43,32.59,69.69s59.74,56,104.17,73.77c79,31.61,138.24,47,181,47h4.55c31,.15,82.87.44,117.17-50.52,24.19-36,43.9-73.2,56.94-97.85,4.9-9.27,8.71-16.47,11.58-21.39-67.84-21.63-274.46-71.93-470.73,37.12a5,5,0,0,1-4.86-8.75,540.2,540.2,0,0,1,160.58-58,621.77,621.77,0,0,1,146.66-10c82.37,3.89,146.65,21.79,177.63,32.12a5,5,0,0,1,2.37,7.82c-2.4,3.07-7.69,13.08-14.39,25.75-13.14,24.84-33,62.37-57.49,98.76-37.28,55.39-94.68,55.11-125.51,54.93H2603c-44.08,0-104.51-15.6-184.73-47.7-46.07-18.42-82.51-44.28-108.3-76.84-26.26-33.15-33-63.11-34.64-74.45-6.76-46,12.8-190.55,15.05-206.88,8.71-63.12,24.17-75.34,49.78-95.6l1.56-1.23c38.4-30.4,137.3-104.75,226.16-138.45,44.53-16.89,94.68-26.72,149.06-29.23,47.74-2.2,96.12,1.51,139.89,10.73,43.55,9.16,80.23,25.79,109.05,49.43,31.49,25.83,52.55,59.3,62.59,99.47,9.21,36.83-.79,77.93-29.71,122.15-27.24,41.66-62,71.61-72,79.8-66.44,54.26-99.35,120.07-117,155.43l-1.16,2.31c-15.49,31-40.43,80.9-68.32,117,9.12-3.37,19.14-6.77,30.18-10.18,14.9-4.6,29.15-8.63,42.94-12.54,53.72-15.21,96.15-27.22,122.62-57,32.89-37,41.72-61.4,51.53-115.9,2.74-15.24,5.6-34.05,8.62-54,7.86-51.67,16.76-110.24,29.21-146.83l2.52-7.32c16.66-48.18,35.54-102.78-39.84-170.23-36.88-33-95.14-54.41-168.5-61.95-64.49-6.63-136.8-2.17-203.61,12.55-115,25.35-244.76,121.18-285,156-24.72,21.34-42.76,42.78-49.93,124.67-7.86,89.83-11.73,145-9.67,178.91l.16,2.65c2,33.5,3.85,65.13,80.39,118.23,49.52,29.35,51.82,30.35,58.63,33.3,1.19.52,2.51,1.09,4.2,1.86a5,5,0,0,1,2.71,6Z"/><path class="cls-5" d="M2074.28,314.38c-12.47,8.1-29-.42-41.7-5.44-16.43-6.48-41.42-7.33-58.32-1.15a91.81,91.81,0,0,0-1.73-27.81c-7.45-35.78-35-62.67-65.1-81.13-8.24-5-16.73.33-20,8.12l-10.26,24.82a77.32,77.32,0,0,0-9.8,16.19,9.68,9.68,0,0,0-3.12,3.92c-.46,1.08-.89,2.17-1.33,3.25h0l0,.15q-2.13,5.29-3.83,10.61a13.82,13.82,0,0,0-1.16,2.71c-6.41,21.07-12,42.82-7.87,64.92,3.62,19.18,17.94,33.34,23.2,51.7,2.93,10.2,15.14,12.75,22.69,6l23-20.58c-3.31,7.85-6.22,15.86-8.74,23.73a95.43,95.43,0,0,0-4.54,31.6c.14,6.27.85,12.43-.77,17.94q-1.09,2.41-2.18,4.83a17.9,17.9,0,0,0-1.3,4.14,12.85,12.85,0,0,0-.76,4.2c-3.79,9.54,4.84,20.81,16.14,18.16,56.72-13.25,109.39-46.3,142.63-94.56,7.44-10.8,21.49-24.64,26.52-36.72q3.59-5.43,6.94-11C2099.67,321.6,2085.83,306.87,2074.28,314.38Zm-167-81.92a12.15,12.15,0,0,0-.74-1l.17-.39c.71.52,1.41,1.06,2.12,1.6C1908.31,232.55,1907.79,232.5,1907.27,232.46Z"/><path class="cls-5" d="M1878.8,449.7q-13.1-25.12-26.18-50.26c-8.31-15.93-17.37-30.93-31.86-42-28.9-22.06-66.53-23.29-101.3-20.43a153.21,153.21,0,0,0-20.25-1c-14.06.21-17.68,17.86-6.85,25.29,12.16,8.36,19.62,22.84,26.94,36.68,8.3,15.71,16.85,31.61,30.15,43.75,33.06,30.15,78.77,34.46,121.24,27.93C1879.85,468.24,1882.42,456.64,1878.8,449.7Z"/><path class="cls-5" d="M2042.57,448.9c-12.63,7.8-25.85,12.29-40.39,15-7.77,1.46-15.52,3.26-22.44,7.25s-12.18,9.86-16.93,16.22c-8.92,11.93-16.72,24.61-25.93,36.35-9.87,12.58-20.4,24.62-31.45,36.17a13.2,13.2,0,0,0-3.9,8.62,15.09,15.09,0,0,0-1.31,2.35,14.18,14.18,0,0,0-3.65,6.06c-1.68,6.11,1.27,11.85,6.24,15.33,11.19,7.82,24.62,7.6,37.61,4.75,2.44.23,4.89.47,7.33.68,6.6.58,13.06.47,19.29-2s11.2-6.33,16.3-10.48c2.3-1.87,4.51-3.85,6.64-5.9,16.67-6.62,27.54-23.87,36.51-38.63a322.4,322.4,0,0,0,28.54-61,12.48,12.48,0,0,0,.73-4c1.69-2.79,3.47-5.52,5.39-8.18C2069.24,456.21,2053.6,442.09,2042.57,448.9Z"/><path class="cls-5" d="M1964.66,640.57c-3.94-4.27-10.6-5.79-15.94-7.58a273.84,273.84,0,0,0-29-7.93,296.33,296.33,0,0,0-60.17-6.75,276.14,276.14,0,0,0-34.13,1.87c-11,1.29-31,3-29,19.11a18.56,18.56,0,0,0,2.17,6.78,11.9,11.9,0,0,0,.84,12c11.38,17.82,23.2,36,39.92,49.33a19.07,19.07,0,0,0,5.45,3.08c5.67,6.3,17.13,5.67,22-2.19,3.15-5.11,10.73-7.45,16.75-9.77l30.08-11.6,29-11.2c9.79-3.78,21.25-6.81,25.39-17.62A16.38,16.38,0,0,0,1964.66,640.57Z"/><path class="cls-5" d="M2112.74,697.64c-2.75-10.09-11.84-17.77-21.93-19.91-10.5-2.24-21.44-.52-31.89,1.2a232.3,232.3,0,0,0-29,6.92,530.8,530.8,0,0,0-51.24,18c-17.87,7.46-35.42,17-47.66,32.46-13.59,17.16-18.45,38.05-22.28,59.14-1.32,7.21,2,14.64,9.48,16.7a12.4,12.4,0,0,0,3.11.41,39.88,39.88,0,0,0,1.29,12.84,34.6,34.6,0,0,0,20.1,22.92,48,48,0,0,0,27.32,30.57c18,7.56,38.62,2.11,53.77-9.26,15.64-11.75,27.4-28.17,38.93-43.78,10.78-14.58,20.65-29.9,27.91-46.56a156.85,156.85,0,0,0,9.27-26.95c2.14-9.21,2.52-19.17,6-28C2109.67,715.12,2115.65,708.3,2112.74,697.64Zm-100,43.8c-.53-.11-1.06-.18-1.58-.24a14.14,14.14,0,0,0,1.83-1.56C2012.89,740.24,2012.81,740.84,2012.72,741.44Z"/><path class="cls-5" d="M1880,566.67c-5.48-20-20-40.86-36.12-53.46a96.57,96.57,0,0,0-11.05-8.56,88.24,88.24,0,0,0-15.07-8c-6.45-3.4-13-6.55-19.67-9.61-11.14-5.17-33.22-11.71-42.47-19.1a8.61,8.61,0,0,0-4.61-.68c-6.08.57-10,5.29-8.73,11.45a9.5,9.5,0,0,0,1.65,3.73,86.08,86.08,0,0,0,12.61,29.78c7.23,10.93,15.42,21.26,23.22,31.78,14.61,19.68,28.27,42,53.77,48,11.59,2.73,24.13,3,36,2.15,5.79-.4,11-2.94,12.54-9.07C1883.45,579.36,1881.52,572.14,1880,566.67Z"/><path class="cls-5" d="M1916,968.81c-15.5-37.54-52.25-57.36-91.19-62-9.9-1.18-20.28-1.89-30.22-.7-11.76,1.4-19,8-27.55,15.55a196.11,196.11,0,0,1-47.37,30.39c-3.39.68-6.8,1.26-10.22,1.76-4.84.71-7.5,6.84-6.32,11.14,1.43,5.19,6.28,7,11.13,6.32,1.29-.19,2.56-.42,3.84-.63a7.05,7.05,0,0,0,4.81-.33l2.45-1a195,195,0,0,0,38.71-12.44c14.3-6.28,28.46-17.92,44.59-18.49,16.85-.6,33.06,7.87,47.8,15.06l.28.13A30.62,30.62,0,0,0,1869.5,960q16.93,8.88,33.18,19C1908.87,982.88,1919.08,976.32,1916,968.81Z"/><path class="cls-5" d="M1902.65,889.26a328.91,328.91,0,0,0-31.16-106.53c-7.63-15.55-17-30.31-31.42-40.42-7.14-5-15.24-8.4-23.07-12.16s-15.31-7.71-22.71-12a306.38,306.38,0,0,1-48.19-34.79,11.69,11.69,0,0,0-8.94-3c-7.75-6.34-21.59,3.38-15.88,14.2q2.54,4.79,5.06,9.59c-2.89,18.46,1.83,36.93,7.44,54.54a292.5,292.5,0,0,0,10.9,28.8c3,14.15,9.33,27.89,15.36,40.62,8.62,18.18,22.3,30.53,40.25,38.93a116,116,0,0,0,28.06,17.39c19.36,8.36,40,12,60.69,15.25C1895.09,900.59,1903.56,896.92,1902.65,889.26Z"/><path class="cls-6" d="M1908.23,249.07c-1.27,3.42-2.36,6.92-3.33,10.45a3.44,3.44,0,0,0-1.81,2.78c-.26,2.83-.56,5.65-.84,8.48-2.84,14.09-4.26,28.61-6.36,42.61l-10.17,67.88c-.64,4.22,5.67,6.16,6.54,1.8q11-55.11,16.66-111.1a142.86,142.86,0,0,1,5.85-21.1C1916.29,246.77,1909.73,245,1908.23,249.07Z"/><path class="cls-6" d="M2034.11,350.57c-16.12,8.48-32.31,16.84-48.35,25.46-6.73,3.62-13.32,7.53-19,12.68-6.06,5.51-11,12.2-16,18.59q-16.74,21-33.47,42.1l-7.91,10c-1.63,2-4.15,4.38-4.49,7.12-.57,4.57,4.44,6.8,7.58,3.6a3.36,3.36,0,0,0,.87-3.31l-.2-.51a4.08,4.08,0,0,0-.4-.78c1.55-2.33,4.43-5.09,5.39-6.3q3.3-4.14,6.59-8.29,6.76-8.49,13.52-17c8.88-11.18,17.46-22.71,26.8-33.51,9.07-10.49,20.54-16.56,32.63-22.93l39.92-21C2041.4,354.39,2038,348.53,2034.11,350.57Z"/><path class="cls-6" d="M1877,462.93c-16.2-13.94-24-34.53-37.55-50.82-.09-.12-.19-.23-.28-.34-9.28-12.12-24.11-20.18-37.3-27.9-4.54-4-28.23-10-33.61-12.73-4.3-2.16-4.72,0-2.15,2.15,7.37,6.17,48.35,23.73,59.17,33.35,19.36,17.21,36.86,53.34,46.83,61l.09.09h0c.23.18.45.37.68.54C1875.93,470.55,1879.89,465.44,1877,462.93Z"/><path class="cls-6" d="M1880.33,579.81c-9-12.89-20.36-23.82-32-34.26-6.28-5.61-12.7-11-19.18-16.4q-4.47-3.69-8.95-7.34c-2.3-1.87-4.65-4.53-7.69-5.07-4.27-.76-6.11,5.78-1.8,6.54,2.93.52,6.48,4.79,8.76,6.66q4.47,3.67,8.92,7.37c5.65,4.72,11.24,9.52,16.7,14.45,10.66,9.61,21.15,19.66,29.41,31.47C1877,586.79,1882.84,583.4,1880.33,579.81Z"/><path class="cls-6" d="M1878.11,655.51c-.07-.21-.13-.43-.2-.64a96.64,96.64,0,0,0-5.87-29.3c-1-2.67-2.26-6.07-5.71-5.83a4.09,4.09,0,0,0-3.6,5.42,3.53,3.53,0,0,0,1.12,1.51,4.83,4.83,0,0,0,.08.82,243.44,243.44,0,0,0,6.86,27.31c.21,1.87.38,3.74.48,5.63.23,4.34,6.78,4.4,6.79,0,0-.87,0-1.75,0-2.62A3,3,0,0,0,1878.11,655.51Z"/><path class="cls-6" d="M1890.87,866.33c-5.23-6.52-9.91-12.27-13.7-19.82s-7.43-15.09-12.42-22a188.26,188.26,0,0,0-15.87-18.8c-.42-.45-.85-.89-1.28-1.34-2.56-3.1-5.23-6.12-8-9.06s-5.75-5.9-8.7-8.79c-5.64-6.5-10.51-13.47-15.49-20.5-8.77-12.39-19.62-24.76-35.22-27.55-3.3-3.12-7-5.93-11.42-6q-1.26-2-2.45-4c-3.3-5.65-12.1-.53-8.79,5.14,11.12,19,49.67,47.56,51.19,45.89,5.75,5.39,11.5,10.79,17.1,16.34,3.89,4.4,7.91,8.71,12,13q1.67,1.73,3.3,3.48c18,21.76,29.83,47.77,43.05,72.58,2,3.7,6.65,2.87,8.79,0C1897.35,879,1895.11,871.61,1890.87,866.33Z"/><path class="cls-6" d="M2049.14,749.44c-20.82,5.46-39.71,15.83-58.49,26.06l-53.38,29.07a5,5,0,0,0-6.7,1.76l-2.67,4.17c-2.85,4.46,2.68,9.31,7,7l59-32.12c18.67-10.17,37.29-20.66,58-26.09C2058.18,757.6,2055.49,747.78,2049.14,749.44Z"/><path class="cls-6" d="M2013.76,503.12a2.33,2.33,0,0,0-4.11-.86c-1.93,2.6-4,5.08-6.19,7.49a464.22,464.22,0,0,1-39,31.83l-7,4.88a66.71,66.71,0,0,1-15,7.45,61.29,61.29,0,0,0-12.48,7c-9,6.07-18.76,10.55-28.64,14.92-1.76.78-1.13,3.47.52,3.93,4,1.13,7.37-.38,11.06-2,5.38-2.44,10.69-5.07,15.89-7.87a282.26,282.26,0,0,0,30.17-19q7.39-5.29,14.6-10.74c11.41-8.19,22.75-16.55,32.32-26.75,2.66-2.43,5.3-4.88,7.91-7.39A2,2,0,0,0,2013.76,503.12Z"/><path class="cls-6" d="M1900.2,955.74a111.56,111.56,0,0,0-21.77-17.2q-3.09-2.5-6.25-5c-1.07-.86-2.61.66-1.52,1.52l3.28,2.61a1,1,0,0,0,.5,1c1,.56,1.94,1.14,2.89,1.73,13.18,10.76,24.94,21.86,32.65,37.8.44.92,2.14.52,2-.54C1911,970,1905.5,961.26,1900.2,955.74Z"/><path class="cls-4" d="M2044.35,1819.8a5,5,0,0,1-2.56-.71c-14.72-8.83-52.42-21.17-75.17-14.34-14.95,4.48-36,2-62.64-1.06-21.76-2.53-50.45,4.08-64.23,7.26-2.52.58-4.51,1-6,1.33-5.44,1.09-24,1.81-39.44,2-6.23,0-15.17,0-22.33-.3-8.72-.43-13.7-.9-14.63-5.58a5.3,5.3,0,0,1,1.11-4.41c2.5-3.06,6.71-3.73,45.67-3.82,8.06,0,15,0,18.48-.22,7.86-.41,16.13-2.31,27.56-4.94,4.76-1.09,10.16-2.33,16.2-3.62a256.14,256.14,0,0,1,33.38-4.77c1.82-37.63,14.18-300,9.08-356.09-5.54-60.85,4.18-334.79,4.6-346.42a1.93,1.93,0,0,1,0-.24c0-.57,4.71-58.16,0-93.25-.15-1.08-.31-2.16-.49-3.24a41.13,41.13,0,0,0-2.47-4,5,5,0,0,1-4.42-1.43c-3.93-4-6.17-5-14.77-8.55-36.35-9.3-42.15-13.25-49.48-18.24-3.86-2.62-7.84-5.33-18.14-9.53-17.55-7.16-25.19-2.12-37.86,6.24-6.33,4.19-13.52,8.93-23.21,13-28.06,11.69-28.9,11.89-45,10.75l-2.3-.16c-13.22-.91-18.93-7.16-18.74-12.94.17-4.81,4.46-9.67,13.67-9.67,7.85,0,23.76-10.89,31.94-17.75a1.56,1.56,0,0,1,.2-.16c9.78-7.4,16.69-13.19,22.24-17.83,21.18-17.72,22.69-17.57,61.47-13.81l6.3.61c55,5.27,81.87,41.81,89.53,77a97.21,97.21,0,0,0-2.06-30.42c-1.79-8.2-9.7-25-20.88-45.16-5.79,2.48-13.91.77-20-1l-3-.83c-36.27-10.11-121.22-33.78-141.73-125.46q-2.57-11.47-4.83-21.48c-13.48-59.76-17.55-77.79-8.87-84.09,5.36-3.9,12.46-.64,19.34,3.45,7,4.18,13.8,8.47,21,13a881.11,881.11,0,0,0,79.7,45.72c16.3,8.33,29.06,24.78,39,44-3.47-23.55-5.25-43.2-6.83-60.65q-.15-1.66-.3-3.3c-6.4,4.66-13.52,8.59-21.7,7.15-7.87-1.38-15.11-7.52-22.14-18.77-5.41-8.65-11.93-17.14-18.24-25.35-13.08-17-24.37-31.72-22.07-43.56.9-4.65,3.74-8.41,8.43-11.17,13.63-8,45-17.78,66.15-10.5,3.7-1.73,8.76-.77,15.7.54,1.59.3,3.32.63,5.19,1a50.46,50.46,0,0,0,0-7.26,89.88,89.88,0,0,0-1.67-10.09c-14,8-48.21,1.76-66-4.91-20.77-7.79-30.7-27.19-40.31-46-4.86-9.51-9.46-18.49-15.34-25.93-12.84-16.28-26.4-46.93-17.55-56,2.65-2.73,7.69-4.59,16.65,2.06,9.57,7.11,13.38,8.21,21,10.41,8,2.3,20,5.79,45.59,18.57,34.94,17.48,53.3,56.32,61.73,84l.6-.15c-.93-5.08-.8-11.25-.47-18.9.2-4.53.52-9.51.86-14.77,1.49-23,3.73-57.65-6.25-63.64-6.31-3.79-12.29-3.13-21.35-2.15s-20.35,2.22-35.92-.83c-50.32-9.87-82.23-28.18-94.87-54.41-16.33-33.94-31.2-59-39.77-67-1-.93-2-1.82-2.92-2.68-5.59-5.06-10.42-9.42-8.41-14.84s8.83-6.47,20-6.75c3.15-.07,7.34-.3,12.19-.55,34.76-1.85,99.47-5.28,118.28,23.23,2.21,3.35,4.62,6.94,7.14,10.71,16.58,24.74,38.07,56.81,45.6,82,0-3.38,0-6.87,0-10.4.07-15.1.18-35.77-2.44-40.5-1.72-3.09-5.36-7.38-9.58-12.35-9.59-11.28-21.51-25.32-24.6-40.77-4.66-23.29-3.87-73.41,18.08-108.76a295.16,295.16,0,0,0,15.35-28.2c6.21-12.73,10.31-21.14,23.23-15.85,15.75,6.44,52.59,32.7,65.94,72.74,4.41,13.23,7.58,25.07,8.37,36.26,22.27-5.56,49.92.71,69.09,5.06,7.24,1.64,13.49,3.06,17.3,3.34,2.49.19,6.17-.39,9.72-1,8.77-1.38,18.71-3,23.7,4.29,4.39,6.38,5.18,18-18.64,59.43-41.25,71.76-136.63,108.2-175.27,108.21-1.06,0-2.07,0-3-.08a22.5,22.5,0,0,1-4.28,2.84c6.4,14.57,4.75,40.11,3.25,63.25-.34,5.21-.65,10.14-.85,14.57,0,1-.08,2-.11,2.9a542.43,542.43,0,0,1,44-61.85c25-30,45.48-45.43,60.91-46,15.08-.55,29.23-5.34,39.57-8.84,10.92-3.69,17.52-5.92,22.33-3.07a8.18,8.18,0,0,1,3.89,5.83c2.38,13.5-7,42-16.56,64.13-11.36,26.32-19.29,40.29-39,58.75-18.53,17.33-39.35,32.79-66.59,32.79a78.57,78.57,0,0,1-17.88-2.13c-18.19-4.24-28.77-7-34.75-13.1a20.23,20.23,0,0,1-1.44-1.67c-.61.18-1.2.35-1.78.49a124,124,0,0,1,3.23,17.37,66,66,0,0,1-.1,9.65l2.25.25c39.43,4.15,78.1,10.34,80.17,35.81,1.72,21.27-37.69,36.41-80.55,49.6-2.27.7-4.21,1.29-5.73,1.78a30.05,30.05,0,0,0-8,4.58q.45,4.72.88,9.6c1.67,18.39,3.56,39.24,7.42,64.47,1.66,10.84,5.26,18.62,10.75,23.22,2.68-28.09,9-56,22.55-72,20.15-23.81,58.42-39.71,79.45-47.07,28.34-9.93,58.9-16.13,72.67-14.76,17.31,1.74,33.4,4.18,39.93,15,3.91,6.44,3.8,14.6-.34,24.93s-4.79,16.68-5.57,24.1c-1.2,11.32-2.57,24.16-16.19,52.52-9.42,19.6-24.11,48-42.79,68.71-20.54,22.71-42.68,32.47-65.81,29-36.69-5.51-43.38-20.21-48.25-31-1.8-4-3.22-7.08-5.8-9.15-.92-.73-1.89-1.47-2.88-2.22-6.61-5-14.84-11.32-13.92-20.81a15.35,15.35,0,0,1,.38-2.2,40.28,40.28,0,0,1-4.46-.5,529,529,0,0,0,1.51,72.86,5,5,0,0,1-4.44,5.48,4,4,0,0,1-.59,0c12.59,22.33,21.31,41,23.4,50.55a108.05,108.05,0,0,1,2.35,32.45c-1.39,15.14-5.46,16.87-6.8,17.44a6.14,6.14,0,0,1-.79.27c3.06,35.36-.69,82.66-1,86.08-.25,7-10.07,285.28-4.63,345,5.53,60.89-8.66,349.69-9.27,362a4.94,4.94,0,0,1-.9,2.62c23,2.66,42.75,4.71,55.09,1,27.14-8.14,67.58,6,83.19,15.35a5,5,0,0,1-2.58,9.28ZM1926.51,990.43v0ZM1707.4,963.11c1.24.83,3.85,2,8.62,2.29l2.32.16c14.07,1,14.07,1,40.47-10,8.82-3.67,15.59-8.14,21.56-12.08,13.26-8.76,24.71-16.32,47.14-7.16,11.27,4.6,15.9,7.75,20,10.53,6.29,4.27,11.72,8,46.66,16.89a4.51,4.51,0,0,1,.65.22c.35.13.68.27,1,.41-9.27-11.68-21.59-20.36-27.26-24.35-4-2.82-7.16-5-5.23-9.08.45-.92,2.25-3.85,6.87-2.53a49.58,49.58,0,0,1,17,9.28c-13.07-12.44-31.32-21.57-55.74-23.91l-6.32-.61c-18.55-1.8-27.87-2.7-34.32-1.29-6,1.33-10.33,4.93-19.76,12.82-5.62,4.7-12.6,10.54-22.53,18.06-2.89,2.41-24.41,20-38.27,20A10.76,10.76,0,0,0,1707.4,963.11Zm19-282.39c-.48,1.24-1.13,5.43,1.19,19.18,2.11,12.52,6.08,30.1,11.57,54.43q2.25,10,4.83,21.5c19.2,85.84,100.11,108.38,134.65,118l3,.85c7.06,2,10.61,2,12.31,1.7-23.81-41.28-58.74-92.19-82.86-111.34a322.06,322.06,0,0,0-29.52-21.21c-9.55-6.12-13.49-8.65-24.88-24.21-2.31-3.16-7.73-10.57-2.81-15.12,3.51-3.26,9.22-2.89,28,8.59,9.89,6,21.56,14.21,27.15,19,12.59,10.79,79.44,97.69,86.08,113.62.79,1.91,1.84,4.11,2.95,6.44-6.56-36.49-24.14-109.23-62.11-128.64a891.25,891.25,0,0,1-80.5-46.17c-7.1-4.5-13.81-8.75-20.73-12.87C1729.52,681.38,1727.23,680.8,1726.39,680.72Zm199,138.58a7.93,7.93,0,0,0-1.58,3.75c-.39,3.94,5.15,8.16,10,11.89,1.05.8,2.08,1.59,3.06,2.37,4.45,3.55,6.58,8.26,8.65,12.81,4.37,9.61,9.31,20.5,40.64,25.2,19.88,3,38.5-5.47,56.91-25.82,17.81-19.7,32-47.29,41.18-66.33,12.88-26.81,14.09-38.21,15.26-49.24.83-7.82,1.61-15.2,6.24-26.76,2.84-7.12,3.2-12.51,1.07-16-4.14-6.81-18.26-8.76-32.38-10.17-23.77-2.4-112.54,21.76-143.49,58.33-12.6,14.9-18.27,42.42-20.53,70.05a35.25,35.25,0,0,0,9.83.49c5.37-5.56,14.17-11.28,26.9-17.57,14.36-7.08,27.46-14.16,39-20.4,28.85-15.58,49.7-26.82,66.66-26.37,2.66.07,8.87.24,9.82,5.33s-4.57,7.75-9,9.89c-4.21,2-10,4.48-16.82,7.32-15,6.27-33.66,14.09-47.57,22.75C1969.32,803.22,1945.8,816.26,1925.39,819.3Zm-32.21-7.87c2.26,6.66,4.27,13.32,6,19.78.13-4.93.35-10,.67-15.07A30.45,30.45,0,0,1,1893.18,811.43Zm-127-75.74c9.13,12.28,12.26,14.29,20.75,19.73a328.82,328.82,0,0,1,30.34,21.79c.86.68,1.73,1.4,2.61,2.15-7.9-9.69-14.27-17-17.39-19.67C1794.33,752.65,1776.74,741.09,1766.23,735.69ZM1845.94,620c-16,0-34.9,6.15-44.22,11.63-2.85,1.68-3.47,3.35-3.69,4.46-1.44,7.41,9.56,21.72,20.19,35.55,6.45,8.4,13.13,17.09,18.79,26.14,5.37,8.59,10.54,13.38,15.38,14.23,6,1,12.25-3.85,18.86-9h0c-1.79-18.37-3.93-35.43-8.45-54-3.28-13.52-5.32-21.94-5.12-27.53A45.15,45.15,0,0,0,1845.94,620Zm31.28,49.77c1.44,8.82,2.5,17.52,3.43,26.45a29.54,29.54,0,0,1,6-2.81c1.55-.5,3.54-1.11,5.85-1.82,11.51-3.54,30.76-9.46,47.06-17,24.59-11.4,26.7-19.33,26.46-22.21-1.57-19.34-46.89-24.11-71.24-26.67l-2.15-.24c-.6,5.06-1.36,10.26-2.14,14.81a165.21,165.21,0,0,1-3.94,17.84c-1.82,6.17-3.82,10.49-7.65,11.49A5.93,5.93,0,0,1,1877.22,669.76Zm-9-42.31c.9,5.17,2.66,12.41,4.29,19.11.25,1,.5,2.08.74,3.11C1874.34,639.78,1872.66,632.34,1868.25,627.45Zm9.32-4.41a29.1,29.1,0,0,1,4.19,8.33c.37-2.5.71-5,1-7.38C1880.89,623.66,1879.17,623.34,1877.57,623Zm25.06-38.9c4.77,3.25,14.14,5.61,28.07,8.86,31.79,7.42,55-9.18,75.36-28.22,18.42-17.23,25.9-30.45,36.68-55.41,12.17-28.18,16.76-49,16-57.28-2.7.23-8.51,2.2-13.32,3.83-10.91,3.69-25.87,8.75-42.4,9.36-25.4.94-72.86,62.6-98.66,106.28,20.56-10.53,49.12-27.39,64.65-39.27,7.78-5.94,16.68-14,24.52-21.13,4.54-4.11,8.46-7.67,11.53-10.24,3.85-3.22,7.49-6.26,11.28-4.11a5.51,5.51,0,0,1,2.57,6,5.36,5.36,0,0,1-.14.54c-8.4,26.4-93.62,76.42-109.14,79.75A44.63,44.63,0,0,1,1902.63,584.14ZM1749.94,471.69c-.66,6.19,6.3,26.74,18.32,42,6.49,8.21,11.52,18.05,16.4,27.57,9.13,17.85,17.77,34.72,34.91,41.15,23,8.64,53.5,10.28,58.35,5-3.71-2.09-6.55-5.86-9.74-10.49a88.81,88.81,0,0,0-10.66-13.27c-5.86-5.85-19-15.07-30.5-23.21-22.14-15.58-27.4-19.28-25.12-24.77.66-1.61,2.55-4.16,7.76-3.26,12.32,2.15,40.58,26.16,60,46.7-9.66-21.3-25-43.79-48-55.32-24.75-12.37-35.82-15.58-43.9-17.92-7.9-2.29-13.13-3.8-24.14-12A18.91,18.91,0,0,0,1749.94,471.69Zm-59.29-128.3c1.13,1.12,2.56,2.42,3.75,3.49,1,.9,2,1.84,3.06,2.81,13.58,12.72,33.86,53.17,41.94,70,11.19,23.24,40.73,39.71,87.79,48.93,14.07,2.76,24.08,1.67,32.91.71,2.44-.26,4.81-.52,7.13-.67-2.66-3.55-5.75-8.28-9.64-14.23-9.76-14.92-23.13-35.36-36.79-45.2-29.17-21-65.16-35.46-65.52-35.6a5,5,0,0,1,3.1-9.49c2.14.56,52.69,13.86,78.59,39.76,9.76,9.76,17,20.72,23.91,31.33a221.28,221.28,0,0,0,12.79,18.19c-6.23-23.82-29.09-57.93-45-81.72-2.55-3.8-5-7.41-7.19-10.78-15.65-23.72-79-20.36-109.4-18.75-4.93.26-9.18.49-12.48.57A67.35,67.35,0,0,0,1690.65,343.39Zm357.85,4.94a37.74,37.74,0,0,0-4.22,7c-5.57,11.12-17,15-31.42,19.92-9.16,3.12-19.54,6.65-30.6,12.76-14.53,8-32.3,33.23-46.59,53.47-8.59,12.18-15,21.19-20.37,27.08,40-6.36,118.41-40,154.13-102.11,22.23-38.67,20.22-47.11,19.07-48.77-1.41-2.05-9.23-.82-13.9-.08-4.12.65-8.37,1.33-12,1.06-4.55-.34-10.83-1.77-18.78-3.57-18.94-4.3-46.73-10.6-66.86-4.44a62.48,62.48,0,0,1-1.5,9.67c-4.5,18.79-18.17,34.59-43,49.72l-4.81,3.9-8.94,7.23c-1.89,8.17-3.63,17.5-5.21,28.16-.72,5.55-2.62,13.43-4.62,21.78-1.93,8-5.44,22.6-6,30.92,9.75-11.55,22.67-29.2,31-40.52,13.24-18.1,24.69-33.73,31.43-40,10.83-10.09,16.88-11.8,25.26-14.16a138.24,138.24,0,0,0,26.41-10.1c18-8.84,24-15.43,24.08-15.5l-.09.1a4.83,4.83,0,0,1,4.67-1.79,5,5,0,0,1,4.16,4.19c.18,1.21.34,2.27-1.42,4.3Zm-157.4,51c1.49,8.12,1.57,20.86,1.48,38.42,0,8.88-.1,18,.24,25.32.15-8.06,2.76-19.49,6.32-34.31,1.95-8.07,3.78-15.71,4.44-20.81q1.37-9.18,2.9-17.18-2.18,1.65-4,2.95C1898.67,396.4,1894.75,398.92,1891.1,399.35Zm1-14.12c-.08,1.31-.12,2.47-.1,3.4,3.44-1.84,9.8-6.7,17.86-13.14,12.57-50.76,32-59.86,57.29-71.75l.09,0c-.33-11.4-3.75-23.42-8.12-36.51-12.13-36.39-46.44-61-60.23-66.65-4.18-1.71-4.26-1.74-10.47,11a300.52,300.52,0,0,1-15.84,29.08c-21.18,34.13-20.44,83.14-16.77,101.53,2.59,12.91,13.58,25.86,22.42,36.26,1.4,1.65,2.74,3.23,4,4.74.21-3,.57-6.42,1-10.43l.57-5.46c1.68-16.51,6.24-47.71,10.85-74.19,2.49-14.33,4.84-26.41,6.8-34.92,3.43-15,5.24-18.43,9.66-18.6,1.47,0,5,.42,6,6,3.12,17.49-10.87,116.09-21,136.92A5,5,0,0,1,1892.05,385.23Zm74.31-70.08c-18.64,8.93-32.8,17.73-43.12,49.5l3.18-2.59a4.91,4.91,0,0,1,.55-.38C1952.48,346.19,1963.43,331.15,1966.36,315.15Z"/><path class="cls-7" d="M2447.42,1645.21A45.25,45.25,0,0,0,2433,1614a63.56,63.56,0,0,0-9-12.75c-16.07-17.43-45.46-8.85-62.31,2.87-.23.16-.45.33-.66.5,0-.11,0-.22,0-.33a40,40,0,0,0-4.59-17c-4.31-8.14-12.05-12.19-20.12-15.47-29.43-11.94-58.33-15.54-90.06-15.22-16.82.17-37.4.09-53.87,3.46a156.87,156.87,0,0,0-26.79,7.6c-5,.3-9.91.62-14.87,1-13.69,1-25.25,7.62-30.76,20.7a33.29,33.29,0,0,0,.55,27.22c-.24.75-.46,1.52-.65,2.3-1.41,6.06-2.47,12.5-1.8,18.74.16,1.45.35,2.86.57,4.24,0,.25,0,.5,0,.75s0,.43.05.64a385.79,385.79,0,0,0-2,39.35c0,13.06.44,26.11,1.13,39.15-6.88-5.27-14.75-9.46-22-13.9q-17-10.38-34-20.7c-22.7-13.74-45.5-27.31-68.52-40.51a10.32,10.32,0,0,0-9.65-.69c3.51-7.74,1-15.91,1.47-17.94,1.73-7.55-3.6-16.41-11.67-18.3a23.65,23.65,0,0,0-27.38,13.31c-8.44,6.32-13.41,12.92-16,23.36-.93,3.67-3.66,8.54-3,11.86a10.22,10.22,0,0,0-.45,4.15c.81,7.64,4.6,15.81,12.77,16.23,27.37,1.42,33.06-12.35,34.92-14.79a12.61,12.61,0,0,0,1.68,1.88,686.88,686.88,0,0,0,61.64,50.64l36,33.11,20.75,19.11c6.64,6.12,13.54,14.34,21.82,18.2-.09.62-.17,1.24-.23,1.86a7.41,7.41,0,0,0-.45,3.1,9.42,9.42,0,0,0,.41,2.21,10.19,10.19,0,0,0-.89,3.22q-1,9.24-1.62,18.5a7,7,0,0,0,.6,3.49l-.48,4.5a6.22,6.22,0,0,0,.55,3.36l0,.47a7.71,7.71,0,0,0,0,1.18c-5.35,1-9.49,8-4.45,12.92,16.05,15.79,38.08,21.3,59.73,24.27,12.78,1.76,25.62,3.11,38.44,4.61,13.1,1.53,26.36,4,39.42,1a7.6,7.6,0,0,0,1-.32h.43a172.88,172.88,0,0,0,30.18-3.94q15.61-2.07,31.21-4.2c9.46-1.3,18.43-2.12,27.27-5.85a46.39,46.39,0,0,0,9-5.1c5.2-1.2,10.3-2.94,14.91-4.32,5.88-1.75,14.18-3,16-9.9s-2.19-11.77-8.54-12.89c0-.59-2.57-40.79-3.23-55.66a8.84,8.84,0,0,0,7.4-.17c12.23-5.49,24.28-11.17,34.78-19.64,10.18-8.21,18-19.17,24.79-30.26C2446.11,1696.64,2452,1671.16,2447.42,1645.21Zm-62,98.35a7.7,7.7,0,0,0-3.12,4.21c-5.66,3-11.53,5.56-17.29,8.14l-.22.12c-.61-14.16-1.32-28.31-2.24-42.46q-.92-14-2.16-28c.36-3.7.67-7.39.92-11.1a242.7,242.7,0,0,0-.64-41.76l2.42-2.18a93.86,93.86,0,0,1,9-6.87,7.58,7.58,0,0,0,3.2-4.2c.13-.13.26-.26.37-.39a83,83,0,0,0,7.54-4.77,8.25,8.25,0,0,0,2-2l1-.5a6.25,6.25,0,0,0,2.71-2.6l5.26-2.25c8-1.12,15.75.48,20.76,7.43,1.12,1.55,2.13,3.15,3.09,4.77.17,1.38.55,1.75,2.19,4,6.72,13.43,8.66,28.77,7.92,43.77a7.38,7.38,0,0,0,.57,3.39C2423.52,1699.16,2410.32,1726.49,2385.43,1743.56Z"/><path class="cls-8" d="M2349.2,1578.06c-7.2-5.08-18.43-10-26.8-12.92s-17.4-3.92-26.23-4.75a506.16,506.16,0,0,0-57.63-2.08,520,520,0,0,0-64.52,5.42q-16.45,2.4-32.72,5.89c-8.46,1.81-17.06,4-23.09,10.65a4.59,4.59,0,0,0,.23,6.48,15.64,15.64,0,0,0-.35,2.84c-.2,6.79,3.9,12.25,9.51,15.68,7.07,4.32,16,6,24,8,9.24,2.24,18.59,4,28,5.37,37.3,5.35,75.15,4.46,112.57.92,17.16-1.63,34.43-4.07,50.27-11.24,6-2.73,14.16-6.43,15-13.94C2358.24,1586.57,2354.81,1582,2349.2,1578.06Zm-1.51,16.53c-1.27,2.33-6,4-8.28,5a84.25,84.25,0,0,1-10.5,4.1,140.2,140.2,0,0,1-22.75,5,480,480,0,0,1-93.11,3.93,322.84,322.84,0,0,1-53.46-7c-8.14-1.8-17-3.45-24.64-6.92-3-1.38-6.6-3.44-7.49-6.91-.58-2.26-.15-5.43,2.37-6.21a4.35,4.35,0,0,0,3.2-4.32,63.42,63.42,0,0,1,8.8-2.44c8.27-1.83,16.61-3.4,25-4.79,16.32-2.71,32.78-4.57,49.28-5.64q24.41-1.59,48.87-.82c15.3.48,31.24.88,46.25,4a68.14,68.14,0,0,1,20.7,8C2335.52,1581.75,2350.55,1589.34,2347.69,1594.59Z"/><path class="cls-8" d="M2157.52,1754.44c-.57-5.83-3.41-10.81-7.06-15.27-3.82-4.69-12.68-8.56-17.54-12.16a66.94,66.94,0,0,0-13.75-8.3c-3.73-1.8-2.07,6.47-1.55,6.26,4.07.84,11.89,7.44,15,9.75a70,70,0,0,1,9.33,8.55c3.11,3.41,6,7.35,6.55,12.09s1.92,10.56,1.27,15.2c-1.1,8-3.35,14.24-11.38,18.69-8.19,4.54-15.41-.11-21.41-5.91-4.25-4.11-5.61,3.83-1.35,7.94,8.23,8,13.15,11.9,24.54,7.25,10.46-4.28,17.7-12.19,18.31-22.91A141.94,141.94,0,0,0,2157.52,1754.44Z"/><path class="cls-8" d="M1974.05,1608.81c-2.29-4.72-9.33-.59-7,4.12,5.56,11.5-.53,24.15-5.69,34.56-2.45,5-5,10-8.7,14.14a27.79,27.79,0,0,1-6.26,5.39c-.57.35-7.19,3-7.19,2.91.62-5.21-7.54-5.16-8.16,0-1.09,9.1,10,8.44,15.55,6.11,7.83-3.26,13.57-9.8,17.82-17C1973.11,1644.43,1982.15,1625.54,1974.05,1608.81Z"/><path class="cls-8" d="M2367.76,1827.52a36.39,36.39,0,0,0-7.93,3.14q-2.84,1.32-5.64,2.75a95.4,95.4,0,0,0-16.05,4.78c-42.64,9.87-85.69,15.44-129.72,9.49a4.21,4.21,0,0,0-3.36,1,289,289,0,0,1-82.45-20.14,3.55,3.55,0,0,0-.86-.23c-1.36-1-4.92-2.08-6.17-3.32-3.19-3.19-4.08,1-5.1,3.06-2.05.62-3.36,3-4.39,4.72-2.4,4.1-.67,8.59,2.93,11.16,24.72,17.68,55,20.35,84.28,24.28,31,4.15,62.15,6,93.1.53a6,6,0,0,0,2-.73,6.12,6.12,0,0,0,3,.45,212.63,212.63,0,0,0,38.88-7.66c.63-.19,48.54-13.37,48.89-25.82C2379.29,1828.88,2372.77,1825.5,2367.76,1827.52Z"/><path class="cls-9" d="M1960.14,1610.59c-.85.66-1.68,1.34-2.5,2a8.16,8.16,0,0,0-3.55,1.76c-6.59,5.46-13.17,11.35-18.46,18.1s-7.12,14.45-8.49,22.66a10.65,10.65,0,0,0-.09,2.1,35.35,35.35,0,0,0-.32,6,7.11,7.11,0,0,0,1.81,4.68,6.86,6.86,0,0,0,2.59,2.69,6.18,6.18,0,0,0,1.47.62,5.6,5.6,0,0,0,3.05.55,7.14,7.14,0,0,0,6.18-2,7.59,7.59,0,0,0,3.12-1.91c.17-.17.33-.34.5-.5a5.93,5.93,0,0,0,3.17-2.13l5.85-7.34a8.62,8.62,0,0,0,1.19-1.28l3.39-4.51a5.74,5.74,0,0,0,1.12-2.63c.42-.71.83-1.41,1.23-2.12a17.11,17.11,0,0,0,1.9-3.71l2.41-4.61a7.33,7.33,0,0,0,.84-4.56,128,128,0,0,0,5.53-17C1973.91,1610.08,1965.52,1606.38,1960.14,1610.59Z"/><path class="cls-9" d="M2349.85,1582.16a6.66,6.66,0,0,0-3.38-1.24q-5.66-1.9-11.42-3.42a69.34,69.34,0,0,0-22.44-4.76c-19.87-7-42.53-8.5-63.2-7.69-27.34,1.08-54.78,5.13-81.64,10.19a5.77,5.77,0,0,0-1.37.44l-3.85.39a7.7,7.7,0,0,0-4.3-.21l-12.47,2.74a6.63,6.63,0,0,0-2.94,1.46c-1.69.24-3.37.48-5.06.74a6,6,0,0,0-3.76,2.29,8,8,0,0,0-5.75,5.41l-1.18,3.43c-1.55,4.53,2.6,10,7.38,9.69,1.31-.08,2.58-.22,3.82-.42l.39.16c2.55,2.12,6.39,2.86,10.18,3a8.23,8.23,0,0,0,5,2.27q9.85,1,19.75,1.55a8.74,8.74,0,0,0,3.71,1.34c34.13,3.94,69,7,102.81,0a132.86,132.86,0,0,0,37.68-2.46,7.12,7.12,0,0,0,3.47-1.69,19.49,19.49,0,0,0,7.77-1.8c6.8-.91,13.59-2.36,18.69-6.57a7.87,7.87,0,0,0,1.42-.39C2356,1594,2356.46,1585.14,2349.85,1582.16Z"/><path class="cls-10" d="M2349.91,1596.06a1.42,1.42,0,0,0-1.19-1.35,1.79,1.79,0,0,0-.7,0l-.2,0a31,31,0,0,0-10.4-1,1.83,1.83,0,0,0-.25-.06,342,342,0,0,0-35.48-2,6.13,6.13,0,0,0-.87-.07c-26.27-.62-52.67-3-78.79,1l-.39.09c-2.49.12-5,.24-7.47.34a2.36,2.36,0,0,0-1.25.41c-5.53.23-11.05.49-16.57.82a2.54,2.54,0,0,0-1.52.59c-1-.07-1.94-.11-2.91-.09-7.09.11-14.25,1-21.32,1.61a2.61,2.61,0,0,0-1.35.5.94.94,0,0,0-.57-.23,58.9,58.9,0,0,0-11.94.84h0l-14.12.77a1,1,0,0,0-.47.14l-1.14.11s-7.34,1.91-6.65,1.85a.86.86,0,0,0,.63.55c1.07.19,2.13.35,3.19.5a.91.91,0,0,0,.48.37c.86.27,1.72.51,2.58.73a1,1,0,0,0,.62.61,19.3,19.3,0,0,0,6.47,1.22c2.38,1.85,6.52,2.15,10.36,2.06l.32,0a.9.9,0,0,0,.67.63,49.15,49.15,0,0,0,9.85,1.22,109.25,109.25,0,0,0,15.55,2.71,31.44,31.44,0,0,0,5.78.3,5.41,5.41,0,0,0,1.16.22q7.41.36,14.78.11c3.55.35,7.65,1,11.24.37a4.25,4.25,0,0,0,2.44.55q21.76-1.24,43.54-1.89a4.54,4.54,0,0,0,3.39.58c7.51-1.52,15.45-1.06,23.07-1.67s15.17-1.56,22.71-2.75a4.12,4.12,0,0,0,2.06-.9l9.76-1.74a1.89,1.89,0,0,0,.47,0l7.93-1.49a1.37,1.37,0,0,0,.75-.37l3.24-.7a1.35,1.35,0,0,0,.9-.59c2.33-.42,4.67-.9,7-1.48a1.45,1.45,0,0,0,1.07-1.52c.41,0,.82-.1,1.22-.15l.44.11a1.35,1.35,0,0,0,1.68-.71A1.3,1.3,0,0,0,2349.91,1596.06Z"/><path class="cls-4" d="M2233.75,1876.41c-68.6,0-115.61-20.42-126.5-28-6-4.3-6.7-14-3.56-20.06a10.69,10.69,0,0,1,4.5-4.68,1.93,1.93,0,0,1,0-.34c.12-4.38.6-9.82,2.42-29.91a6,6,0,0,1,3.26-4.84c-18.7-12.91-44.6-35.9-62.88-52.12l-7.51-6.65c-19.71-17.39-56.3-46.94-69-57.15-13.53,11.88-25.78,10.26-34.11,9.15l-.44,0a4.82,4.82,0,0,1-4.12-4.11,5.15,5.15,0,0,1,0-1.36,10.2,10.2,0,0,1-6.61-3c-4.19-4.18-5.82-13.52-4.16-23.77a55.86,55.86,0,0,1,30.67-41.17,25.85,25.85,0,0,1,7.33-2.5,5.26,5.26,0,0,1,6-3.12c4.52,1.07,12.69,4,16.6,11.86,2.42,4.85,5,17.34,4.33,27.28a4.05,4.05,0,0,1,.83.35c54.44,29.45,94.61,52.08,121.66,68.58.51-43,1.57-118.79,2.74-124.65,0-.07,0-.14.05-.21,3.1-12.4,18-20.24,46.81-24.66,25.32-3.88,59-4.85,91.24-5.51,52.43-1.06,94.78,8.5,105.38,23.82a13.26,13.26,0,0,1,2.53,7.47,13.56,13.56,0,0,1,2.76,8.48c18.08-10.61,41.81-15.06,61.24.67,14.88,12,24.59,31,27.33,53.29a115.48,115.48,0,0,1-10.62,63.4c-13,27-22.9,40.74-63.22,59.17a23.06,23.06,0,0,1-8.2,2.14c1.09,22.13,2,39.71,2.33,47a14.4,14.4,0,0,1,7.37,4.77c2.54,3.15,3.55,7.27,3,12.24a2.63,2.63,0,0,1-.06.39c-2,10-15,14.09-52.48,24.57A366.64,366.64,0,0,1,2233.75,1876.41Zm-121.65-44.6a7.33,7.33,0,0,0-1.26,4.24c-.08,2.23.57,4.23,1.6,5,5.18,3.63,29,15.53,68.88,22.11,32.79,5.41,84.9,8.3,147-8.7,21.92-6.14,44.61-12.49,46-17.52.23-2.39-.13-4.19-1.08-5.37a6.84,6.84,0,0,0-4.38-2.07l-.2,0a5.19,5.19,0,0,1-2.66,4.78c-25.87,14.55-71.89,24.09-120.11,24.9C2191.89,1860,2144.42,1850.33,2112.1,1831.81Zm5.19-10.81c23.48,11.91,58.71,20.65,94.95,23.51a367.08,367.08,0,0,0,149.47-19.75,5.16,5.16,0,0,1,2.35-.27.41.41,0,0,1,0-.11c-.21-4.23-1.25-25.18-2.61-52.51a8.91,8.91,0,0,1-4.09-7.55c.06-2.44,1.15-4.89,3.35-7.42-2.95-59.37-6.84-137.52-7.36-148.06a66,66,0,0,1-17.44,5.12c-76.59,13.15-125.72,12.84-153.44,10.27-29.44-2.74-50.83-9.45-57.22-18a4.5,4.5,0,0,1-.19-5.12l0-.06a13.54,13.54,0,0,1-1.57-2.23c-.72,21.28-1.49,69.53-2,117.43,18.29,11.49,29,19.47,32.75,24.24,7.56,9.73,8.84,26.37,6.83,37.71-1.65,9.29-5.49,16.24-10.82,19.57-9.29,5.8-22.3,6.16-31.11,1.45C2118,1811.54,2117.5,1817.29,2117.29,1821Zm-.11,2.54h0ZM1980.8,1666.15c13.37,10.75,49.15,39.68,68.64,56.87l7.52,6.67c22.06,19.58,55.4,49.16,72.38,57.83a12.37,12.37,0,0,0,11.64.06c9.18-5.07,6.81-20.62,5.53-29-.11-.7-.21-1.35-.29-1.94-1.65-9.67-16.25-20.12-29.37-26.68a8,8,0,0,1-4.46-7.3c0-.48,0-1,0-1.46q-39.47-24.33-121.92-69A97.21,97.21,0,0,1,1980.8,1666.15Zm389.09,94.36c.07,1.57.15,3.13.23,4.67a13.94,13.94,0,0,0,4.91-1.33c37.81-17.29,46.57-29.39,58.85-54.89,18.31-38,12-84.5-14.27-105.8-22.69-18.37-49.38-1.58-57.33,4.26.07,1.28.4,7.94.91,18.19,2.88-3,9.09-9,20-16.91,9.8-7.13,19.23-9,27.28-5.42,11.76,5.23,19.19,21.86,22.09,49.42,2.52,24-3.77,47.65-18.2,68.51-11.54,16.7-26,28.25-34.81,33.08A62.52,62.52,0,0,0,2369.89,1760.51Zm-6.24-125.5c1.44,28.84,3.74,75.18,5.71,114.83,1.75-1.13,3.71-2.27,5.87-3.45,14.26-7.78,53.76-41.52,48.37-92.75-3.16-30.06-10.88-39.51-16.8-42.14-6.24-2.77-13.41.9-18.32,4.48-14.66,10.66-20.21,17.42-20.27,17.48A4.49,4.49,0,0,1,2363.65,1635ZM1979,1622.5c0,5.63-1.51,12.34-4.44,19.67-5.79,14.47-11.77,24.11-19.48,30.76a29.52,29.52,0,0,0,13.62-7.2,4.48,4.48,0,0,1,.76-2.4c4-5.94,10-15.5,10.75-17.27C1982.16,1640.32,1980.84,1629.12,1979,1622.5Zm-13.74-7.91a16.49,16.49,0,0,0-5.54,1.77,46.89,46.89,0,0,0-25.81,34.56c-1.37,8.41.16,14.5,1.63,16,.21.21.55.55,1.77.32,6.1-1.15,17.28-12.92,24.72-29.92C1966.88,1626.3,1966.55,1619,1965.3,1614.59Zm187.79-13c18.24,4,47.54,8.13,94.56,6.21,32.52-1.33,68.84-3.7,89.07-10-23.45-2.31-63.82-4.37-89.31-3.07-15,.76-28.81,1.93-42.19,3s-27.36,2.3-42.48,3.07C2159.12,1601.11,2155.92,1601.35,2153.09,1601.63Zm101.67-31.08c-41.44,0-80.73,6.55-99.13,9.61-14.45,2.41-20.73,5.82-23.45,8.25a4.62,4.62,0,0,0-1.4,4.6,5.12,5.12,0,0,0,2.31,3.23c5.51-1.86,14.51-3.56,29.19-4.31,15-.76,28.81-1.92,42.19-3s27.36-2.3,42.48-3.07c29.59-1.5,78.85,1.43,99.76,4.11a4.49,4.49,0,0,1,2.9,1.6,11.72,11.72,0,0,0,1.65-1.86,13.46,13.46,0,0,0-2.41-1.35l-.27-.13C2322.31,1574.72,2287.85,1570.55,2254.76,1570.55Z"/></g></g></svg>